<svg xmlns="http://www.w3.org/2000/svg" xmlns:xlink="http://www.w3.org/1999/xlink" version="1.1" width="256" height="256" viewBox="0 0 256 256" xml:space="preserve">

<defs>
</defs>
<g style="stroke: none; stroke-width: 0; stroke-dasharray: none; stroke-linecap: butt; stroke-linejoin: miter; stroke-miterlimit: 10; fill: none; fill-rule: nonzero; opacity: 1;" transform="translate(1.4065934065934016 1.4065934065934016) scale(2.81 2.81)" >
	<path d="M 11.596 27.637 C 5.202 27.637 0 22.436 0 16.042 S 5.202 4.445 11.596 4.445 H 45 c 0.552 0 1 0.448 1 1 s -0.448 1 -1 1 H 11.596 C 6.305 6.445 2 10.75 2 16.042 c 0 5.291 4.305 9.596 9.596 9.596 c 0.552 0 1 0.448 1 1 S 12.148 27.637 11.596 27.637 z" style="stroke: none; stroke-width: 1; stroke-dasharray: none; stroke-linecap: butt; stroke-linejoin: miter; stroke-miterlimit: 10; fill: rgb(0,0,0); fill-rule: nonzero; opacity: 1;" transform=" matrix(1 0 0 1 0 0) " stroke-linecap="round" />
	<path d="M 11.638 27.637 c -0.552 0 -1 -0.448 -1 -1 s 0.448 -1 1 -1 c 4.574 0 8.295 -3.721 8.295 -8.294 c 0 -0.552 0.448 -1 1 -1 s 1 0.448 1 1 C 21.933 23.019 17.314 27.637 11.638 27.637 z" style="stroke: none; stroke-width: 1; stroke-dasharray: none; stroke-linecap: butt; stroke-linejoin: miter; stroke-miterlimit: 10; fill: rgb(0,0,0); fill-rule: nonzero; opacity: 1;" transform=" matrix(1 0 0 1 0 0) " stroke-linecap="round" />
	<path d="M 69.067 18.343 H 20.933 c -0.552 0 -1 -0.448 -1 -1 c 0 -3.549 -2.887 -6.436 -6.436 -6.436 c -0.552 0 -1 -0.448 -1 -1 s 0.448 -1 1 -1 c 4.313 0 7.88 3.254 8.376 7.436 h 46.252 c 0.496 -4.182 4.064 -7.436 8.377 -7.436 c 0.553 0 1 0.448 1 1 s -0.447 1 -1 1 c -3.549 0 -6.436 2.887 -6.436 6.436 C 70.067 17.895 69.62 18.343 69.067 18.343 z" style="stroke: none; stroke-width: 1; stroke-dasharray: none; stroke-linecap: butt; stroke-linejoin: miter; stroke-miterlimit: 10; fill: rgb(0,0,0); fill-rule: nonzero; opacity: 1;" transform=" matrix(1 0 0 1 0 0) " stroke-linecap="round" />
	<path d="M 6.805 17.599 c -0.552 0 -1 -0.448 -1 -1 c 0 -4.242 3.451 -7.692 7.692 -7.692 c 0.552 0 1 0.448 1 1 s -0.448 1 -1 1 c -3.139 0 -5.692 2.554 -5.692 5.692 C 7.805 17.151 7.357 17.599 6.805 17.599 z" style="stroke: none; stroke-width: 1; stroke-dasharray: none; stroke-linecap: butt; stroke-linejoin: miter; stroke-miterlimit: 10; fill: rgb(0,0,0); fill-rule: nonzero; opacity: 1;" transform=" matrix(1 0 0 1 0 0) " stroke-linecap="round" />
	<path d="M 9.091 21.9 c -0.192 0 -0.387 -0.055 -0.559 -0.171 c -1.708 -1.154 -2.728 -3.071 -2.728 -5.13 c 0 -0.552 0.448 -1 1 -1 s 1 0.448 1 1 c 0 1.393 0.69 2.691 1.847 3.473 c 0.458 0.309 0.578 0.931 0.269 1.388 C 9.727 21.746 9.412 21.9 9.091 21.9 z" style="stroke: none; stroke-width: 1; stroke-dasharray: none; stroke-linecap: butt; stroke-linejoin: miter; stroke-miterlimit: 10; fill: rgb(0,0,0); fill-rule: nonzero; opacity: 1;" transform=" matrix(1 0 0 1 0 0) " stroke-linecap="round" />
	<path d="M 78.404 27.637 c -0.553 0 -1 -0.448 -1 -1 s 0.447 -1 1 -1 c 5.291 0 9.596 -4.305 9.596 -9.596 c 0 -5.292 -4.305 -9.596 -9.596 -9.596 H 45 c -0.552 0 -1 -0.448 -1 -1 s 0.448 -1 1 -1 h 33.404 C 84.798 4.445 90 9.647 90 16.042 S 84.798 27.637 78.404 27.637 z" style="stroke: none; stroke-width: 1; stroke-dasharray: none; stroke-linecap: butt; stroke-linejoin: miter; stroke-miterlimit: 10; fill: rgb(0,0,0); fill-rule: nonzero; opacity: 1;" transform=" matrix(1 0 0 1 0 0) " stroke-linecap="round" />
	<path d="M 78.362 27.637 c -5.677 0 -10.295 -4.618 -10.295 -10.294 c 0 -0.552 0.447 -1 1 -1 s 1 0.448 1 1 c 0 4.574 3.721 8.294 8.295 8.294 c 0.553 0 1 0.448 1 1 S 78.915 27.637 78.362 27.637 z" style="stroke: none; stroke-width: 1; stroke-dasharray: none; stroke-linecap: butt; stroke-linejoin: miter; stroke-miterlimit: 10; fill: rgb(0,0,0); fill-rule: nonzero; opacity: 1;" transform=" matrix(1 0 0 1 0 0) " stroke-linecap="round" />
	<path d="M 83.195 17.599 c -0.553 0 -1 -0.448 -1 -1 c 0 -3.139 -2.554 -5.692 -5.692 -5.692 c -0.553 0 -1 -0.448 -1 -1 s 0.447 -1 1 -1 c 4.241 0 7.692 3.451 7.692 7.692 C 84.195 17.151 83.748 17.599 83.195 17.599 z" style="stroke: none; stroke-width: 1; stroke-dasharray: none; stroke-linecap: butt; stroke-linejoin: miter; stroke-miterlimit: 10; fill: rgb(0,0,0); fill-rule: nonzero; opacity: 1;" transform=" matrix(1 0 0 1 0 0) " stroke-linecap="round" />
	<path d="M 80.909 21.9 c -0.321 0 -0.637 -0.154 -0.83 -0.44 c -0.309 -0.458 -0.188 -1.079 0.27 -1.388 c 1.156 -0.781 1.847 -2.08 1.847 -3.473 c 0 -0.552 0.447 -1 1 -1 s 1 0.448 1 1 c 0 2.059 -1.02 3.976 -2.728 5.13 C 81.296 21.845 81.102 21.9 80.909 21.9 z" style="stroke: none; stroke-width: 1; stroke-dasharray: none; stroke-linecap: butt; stroke-linejoin: miter; stroke-miterlimit: 10; fill: rgb(0,0,0); fill-rule: nonzero; opacity: 1;" transform=" matrix(1 0 0 1 0 0) " stroke-linecap="round" />
	<path d="M 71.627 24.736 H 18.373 c -0.552 0 -1 -0.448 -1 -1 s 0.448 -1 1 -1 h 53.254 c 0.553 0 1 0.448 1 1 S 72.18 24.736 71.627 24.736 z" style="stroke: none; stroke-width: 1; stroke-dasharray: none; stroke-linecap: butt; stroke-linejoin: miter; stroke-miterlimit: 10; fill: rgb(0,0,0); fill-rule: nonzero; opacity: 1;" transform=" matrix(1 0 0 1 0 0) " stroke-linecap="round" />
	<path d="M 66.422 68.65 H 23.579 c -0.552 0 -1 -0.447 -1 -1 V 23.736 c 0 -0.552 0.448 -1 1 -1 h 42.843 c 0.553 0 1 0.448 1 1 V 67.65 C 67.422 68.203 66.975 68.65 66.422 68.65 z M 24.579 66.65 h 40.843 V 24.736 H 24.579 V 66.65 z" style="stroke: none; stroke-width: 1; stroke-dasharray: none; stroke-linecap: butt; stroke-linejoin: miter; stroke-miterlimit: 10; fill: rgb(0,0,0); fill-rule: nonzero; opacity: 1;" transform=" matrix(1 0 0 1 0 0) " stroke-linecap="round" />
	<path d="M 74.49 76.378 H 15.509 c -0.552 0 -1 -0.447 -1 -1 c 0 -4.813 3.916 -8.728 8.728 -8.728 h 43.525 c 4.813 0 8.728 3.915 8.728 8.728 C 75.49 75.931 75.043 76.378 74.49 76.378 z M 16.583 74.378 h 56.833 c -0.484 -3.237 -3.283 -5.728 -6.653 -5.728 H 23.237 C 19.867 68.65 17.068 71.141 16.583 74.378 z" style="stroke: none; stroke-width: 1; stroke-dasharray: none; stroke-linecap: butt; stroke-linejoin: miter; stroke-miterlimit: 10; fill: rgb(0,0,0); fill-rule: nonzero; opacity: 1;" transform=" matrix(1 0 0 1 0 0) " stroke-linecap="round" />
	<path d="M 78.362 85.555 H 11.638 c -0.552 0 -1 -0.447 -1 -1 v -9.177 c 0 -0.553 0.448 -1 1 -1 h 66.725 c 0.553 0 1 0.447 1 1 v 9.177 C 79.362 85.107 78.915 85.555 78.362 85.555 z M 12.638 83.555 h 64.725 v -7.177 H 12.638 V 83.555 z" style="stroke: none; stroke-width: 1; stroke-dasharray: none; stroke-linecap: butt; stroke-linejoin: miter; stroke-miterlimit: 10; fill: rgb(0,0,0); fill-rule: nonzero; opacity: 1;" transform=" matrix(1 0 0 1 0 0) " stroke-linecap="round" />
	<path d="M 40.711 68.65 h -9.423 c -0.552 0 -1 -0.447 -1 -1 V 34.644 c 0 -3.149 2.562 -5.711 5.711 -5.711 s 5.711 2.562 5.711 5.711 V 67.65 C 41.711 68.203 41.264 68.65 40.711 68.65 z M 32.289 66.65 h 7.423 V 34.644 c 0 -2.046 -1.665 -3.711 -3.711 -3.711 s -3.711 1.665 -3.711 3.711 V 66.65 z" style="stroke: none; stroke-width: 1; stroke-dasharray: none; stroke-linecap: butt; stroke-linejoin: miter; stroke-miterlimit: 10; fill: rgb(0,0,0); fill-rule: nonzero; opacity: 1;" transform=" matrix(1 0 0 1 0 0) " stroke-linecap="round" />
	<path d="M 58.712 68.65 h -9.424 c -0.553 0 -1 -0.447 -1 -1 V 34.644 c 0 -3.149 2.563 -5.711 5.712 -5.711 s 5.712 2.562 5.712 5.711 V 67.65 C 59.712 68.203 59.265 68.65 58.712 68.65 z M 50.288 66.65 h 7.424 V 34.644 c 0 -2.046 -1.665 -3.711 -3.712 -3.711 s -3.712 1.665 -3.712 3.711 V 66.65 z" style="stroke: none; stroke-width: 1; stroke-dasharray: none; stroke-linecap: butt; stroke-linejoin: miter; stroke-miterlimit: 10; fill: rgb(0,0,0); fill-rule: nonzero; opacity: 1;" transform=" matrix(1 0 0 1 0 0) " stroke-linecap="round" />
	<circle cx="13.495000000000001" cy="16.305" r="1.265" style="stroke: none; stroke-width: 1; stroke-dasharray: none; stroke-linecap: butt; stroke-linejoin: miter; stroke-miterlimit: 10; fill: rgb(0,0,0); fill-rule: nonzero; opacity: 1;" transform="  matrix(1 0 0 1 0 0) "/>
	<circle cx="76.495" cy="16.305" r="1.265" style="stroke: none; stroke-width: 1; stroke-dasharray: none; stroke-linecap: butt; stroke-linejoin: miter; stroke-miterlimit: 10; fill: rgb(0,0,0); fill-rule: nonzero; opacity: 1;" transform="  matrix(1 0 0 1 0 0) "/>
</g>
</svg>